<svg id="Layer_1" data-name="Layer 1" xmlns="http://www.w3.org/2000/svg" viewBox="0 0 149.95 140.6">
  <defs>
    <style>
      .cls-1, .cls-2 {
        fill: none;
        stroke: #000;
        stroke-miterlimit: 10;
        stroke-width: 5px;
      }

      .cls-2 {
        fill-rule: evenodd;
      }
    </style>
  </defs>
  <title>ctc-1</title>
  <path class="cls-1" d="M96,4.89C89.49,27.43,62.84,120.24,56,144.11" transform="translate(-0.22 -4.2)"/>
  <path class="cls-2" d="M56.5,38.5,53.4,27.18A80.6,80.6,0,0,0,26.65,42.4,81.69,81.69,0,0,0,2.88,77.7,90.12,90.12,0,0,0,53,127.82l3.5-12.32" transform="translate(-0.22 -4.2)"/>
  <path class="cls-1" d="M58.5,74.5" transform="translate(-0.22 -4.2)"/>
  <path class="cls-1" d="M95.5,74.5" transform="translate(-0.22 -4.2)"/>
  <path class="cls-2" d="M145.5,33.5" transform="translate(-0.22 -4.2)"/>
  <path class="cls-2" d="M60.5,110.5" transform="translate(-0.22 -4.2)"/>
  <path class="cls-2" d="M93.88,38.5,97,27.18A80.51,80.51,0,0,1,123.73,42.4,81.6,81.6,0,0,1,147.5,77.7a90.12,90.12,0,0,1-50.12,50.12l-3.5-12.32" transform="translate(-0.22 -4.2)"/>
  <line class="cls-1" x1="90.78" y1="73.3" x2="60.78" y2="73.3"/>
</svg>
